<?xml version="1.0" encoding="iso-8859-1"?>
<!-- Generator: Adobe Illustrator 18.1.1, SVG Export Plug-In . SVG Version: 6.00 Build 0)  -->
<svg version="1.1" id="Capa_1" xmlns="http://www.w3.org/2000/svg" xmlns:xlink="http://www.w3.org/1999/xlink" x="0px" y="0px"
	 viewBox="0 0 612 612" style="enable-background:new 0 0 612 612;" xml:space="preserve">
<g>
	<g>
		<path d="M423.435,66.147l0.202-1.995c1.75-17.2-10.769-32.555-27.969-34.303c-17.196-1.75-32.555,10.768-34.303,27.969
			l-0.002,0.019c-129.397-1.378-240.787,96.165-254.138,227.404l-2.868,28.211c34.848-2.632,70.732,1.286,104.637,7.532
			c42.8,7.882,83.657,21.701,124.015,37.688c-40.411-9.894-80.577-17.136-122.144-19.91c-21.999-1.467-44.364-0.967-66.304,1.113
			c-18.931,1.795-38.06,4.475-56.221,10.3c-0.021-0.075-0.04-0.153-0.058-0.23L5.218,481.773c-7.119,10.124-6.7,23.739-0.29,34.305
			c6.408,10.562,17.567,18.071,30.562,15.597c2.957-0.564,64.63-19.046,161.505-9.191c160.014,16.276,205.081,51.384,205.081,51.384
			s10.5,7.599,18.606,8.297c2.755,0.236,5.542,0.211,8.316-0.219c9.727-1.514,16.806-7.984,23.2-15.867
			c0,0,101.396-127.977,118.19-149.433c7.573-9.674,17.405-10.715,28.124-17.247c9.259-5.646,10.089-16.517,10.128-22.093
			l2.04-40.852C623.47,210.758,541.931,97.216,423.435,66.147z"/>
	</g>
</g>
<g>
</g>
<g>
</g>
<g>
</g>
<g>
</g>
<g>
</g>
<g>
</g>
<g>
</g>
<g>
</g>
<g>
</g>
<g>
</g>
<g>
</g>
<g>
</g>
<g>
</g>
<g>
</g>
<g>
</g>
</svg>
