<?xml version="1.0"?>
<svg width="128" height="128" xmlns="http://www.w3.org/2000/svg" xmlns:svg="http://www.w3.org/2000/svg">
 <metadata id="metadata3400">image/svg+xml</metadata>
 <g id="g3390">
  <title>Layer 1</title>
  <path d="m61.632809,0.68555c-1.27541,0.01851 -2.546478,0.12906 -3.802731,0.41406c-16.980007,0.7 -33.089848,9.87078 -43.589849,23.050781c-8.5,10.149998 -13.26023,23.059219 -14.24023,36.199219l0,7.439453c0.74,12.699997 5.28914,25.120377 13.11914,35.150391c10.580001,14.209999 27.399999,23.43055 45.000001,25.060547l11.841797,0c17.190002,-1.610001 33.518753,-10.479301 44.21875,-24.029297c8.269989,-10.210014 13.020309,-23.070152 13.820313,-36.160164l0,-7.5c-1.120003,-14.75 -6.960457,-29.35969 -17.480469,-39.929689c-7.919998,-8.65 -18.480232,-14.69031 -29.740234,-17.82031c-4.139999,-1.31 -8.519516,-1.01008 -12.769516,-1.58008c-2.112511,-0.1 -4.25127,-0.32578 -6.376961,-0.29492l-0.000011,0.00001zm15.777348,27.673831c1.189995,1.409988 2.110703,3.010389 2.220703,4.900389c7.559998,2.650002 14.978279,6.909679 19.238281,13.92968c5.309998,8.12001 5.480553,18.27985 4.310547,27.589848c-1.110001,1.970001 -3.70031,2.430473 -5.070297,4.230484c-4.800011,5.93 -9.708679,11.760986 -14.38868,17.791008c-1.030014,1.130005 -1.94133,2.709694 -3.61132,2.929688c-2.540024,0.540001 -3.818924,-2.370773 -6.128914,-2.800774c-7.5,-2.030006 -15.179848,-3.429214 -22.839836,-4.699226c-8.310001,-0.270004 -16.69141,-0.421165 -24.94141,0.798836c-1.18,-1.57 -3.199221,-3.508606 -1.699221,-5.558594c3.5,-5.879997 7.41914,-11.509926 10.869139,-17.419922c10.370003,-2.989998 21.39101,-1.260773 31.791023,0.699226c-4.880001,-1.850006 -9.849991,-3.549225 -15,-4.449226c-4.800003,-0.659996 -9.66024,-0.660149 -14.490242,-0.910149c0.27,-8.090008 2.93,-16.249996 8.5,-22.249996c5.920002,-7.050003 15.130539,-11.060783 24.310547,-10.800793c0.829994,-1.189999 1.599617,-2.43047 2.599617,-3.480459c1.439987,-0.24 2.880066,-0.400009 4.330078,-0.5l-0.000015,-0.000019z" id="svg_2" fill="#a72b43"/>
 </g>
</svg>